<?xml version="1.0" standalone="no"?><svg xmlns="http://www.w3.org/2000/svg" viewBox="0 0 460.91 523.65"><path d="M127.22,419.42a1.25,1.25,0,0,1-1.14,1.35c-.44,0-.88.05-1.33.05s-.89,0-1.33-.05a1.25,1.25,0,0,1,.2-2.5c.37,0,.75.05,1.13.05s.76,0,1.12-.05A1.24,1.24,0,0,1,127.22,419.42Zm5.36-3.54a13.89,13.89,0,0,1-2,1.12,1.25,1.25,0,0,0,.54,2.38,1.23,1.23,0,0,0,.53-.11,18.73,18.73,0,0,0,2.31-1.33,1.26,1.26,0,0,0,.31-1.75A1.24,1.24,0,0,0,132.58,415.88Zm120-217.17a8.59,8.59,0,0,0-7.13-4.52H210a2,2,0,0,0-2,2V210.8h50.27ZM0,385.55a1,1,0,0,0,1,1H4V377H0Zm0-31v14.5H4v-15.5H1A1,1,0,0,0,0,354.55Zm134.76,50a10,10,0,1,1-10-10A10,10,0,0,1,134.76,404.55Zm-11.07-5.95a1.5,1.5,0,1,0,0-2.12A1.5,1.5,0,0,0,123.69,398.6Zm-4.55,4.85a1.5,1.5,0,1,0-2.12,0A1.5,1.5,0,0,0,119.14,403.45Zm2.55,5.72a1.5,1.5,0,0,0-2.13,2.12,1.52,1.52,0,0,0,2.13,0A1.49,1.49,0,0,0,121.69,409.17Zm3.06-.86a3.76,3.76,0,1,0-3.75-3.76A3.77,3.77,0,0,0,124.75,408.31Zm5.19.86a1.5,1.5,0,1,0,0,2.12A1.51,1.51,0,0,0,129.94,409.17Zm2.55-7.85a1.51,1.51,0,0,0-2.13,2.13,1.51,1.51,0,0,0,2.13-2.13ZM0,376H4v-5.92H0Zm118.87,41a13.89,13.89,0,0,1-2-1.12,1.25,1.25,0,0,0-1.43,2.05,17,17,0,0,0,2.3,1.34,1.31,1.31,0,0,0,.53.12,1.26,1.26,0,0,0,.55-2.39ZM437.49,354.8v5.5h7.41a2,2,0,0,1,2,2v6.84a2,2,0,0,1-2,2h-7.41v8a1.42,1.42,0,0,0,1.42,1.42h15a1.42,1.42,0,0,0,1.42-1.42V354.8a1.43,1.43,0,0,0-1.42-1.42h-15A1.43,1.43,0,0,0,437.49,354.8Zm8.41,14.34V362.3a1,1,0,0,0-1-1h-7.41v8.84h7.41A1,1,0,0,0,445.9,369.14Zm-60.74-42.42s51.67,11.5,58.83,13.5,8.84,6.5,8.84,8.16v4H438.91a2.43,2.43,0,0,0-2.42,2.42v24.83a2.26,2.26,0,0,0,.27,1h-7.21a37.11,37.11,0,0,0-7-5.91,36.44,36.44,0,0,0-5.71-3c-8.79-2-19.66-2.16-27.77,0a39.59,39.59,0,0,0-5.71,3,36.36,36.36,0,0,0-7.26,6.23H309V284.55h26.38c3.17,0,7.08,2.69,8.61,4C354.66,297.67,385.16,326.72,385.16,326.72Zm-61,25.33a2,2,0,0,0-2-2h-5.5a2,2,0,0,0-2,2v9.67a2,2,0,0,0,2,2h5.5a2,2,0,0,0,2-2Zm42.76-33.42a10.82,10.82,0,0,0-1.88-2.54l-15-14.44c-4-3.83-9.56-8.16-12.46-9.68s-9.73-2.75-15.25-2.75h-8.77a1.81,1.81,0,0,0-1.84,2l0,41.43a2.2,2.2,0,0,0,2.16,2H360l1.93-14a2,2,0,0,1,2-2ZM112.3,410.43a1.24,1.24,0,0,0-1.66-.59,1.25,1.25,0,0,0-.6,1.67,15.51,15.51,0,0,0,1.34,2.3,1.25,1.25,0,0,0,1,.54,1.25,1.25,0,0,0,1-2A14.37,14.37,0,0,1,112.3,410.43Zm-24.42-7.88H9.25v1.25a1,1,0,0,0,1,1H59v4.5a1,1,0,0,0,1,1H89.92l0-8.47A3.23,3.23,0,0,1,87.88,402.55Zm23.51-7.28a17,17,0,0,0-1.34,2.3,1.26,1.26,0,0,0,1.14,1.79,1.24,1.24,0,0,0,1.12-.71,13.39,13.39,0,0,1,1.13-1.95,1.25,1.25,0,1,0-2-1.43ZM111,405.68a10.68,10.68,0,0,1-.05-1.13,11.06,11.06,0,0,1,.05-1.15h0a1.25,1.25,0,1,0-2.5-.2c0,.44-.05.89-.05,1.35s0,.89.05,1.33a1.25,1.25,0,0,0,1.24,1.15h.1A1.26,1.26,0,0,0,111,405.68Zm5.19-12.24a1.26,1.26,0,0,0,.71-.22,13,13,0,0,1,2-1.12,1.26,1.26,0,0,0-1.08-2.27,17,17,0,0,0-2.3,1.33,1.26,1.26,0,0,0-.32,1.74A1.28,1.28,0,0,0,116.23,393.44Zm14.42-1.33a12.54,12.54,0,0,1,1.95,1.13,1.27,1.27,0,0,0,.72.22,1.25,1.25,0,0,0,.71-2.28,17,17,0,0,0-2.3-1.33,1.25,1.25,0,1,0-1.08,2.26Zm-7-1.28a10.29,10.29,0,0,1,1.11,0,11,11,0,0,1,1.15,0h0a1.25,1.25,0,0,0,.21-2.49c-.45,0-.9-.06-1.36-.06s-.87,0-1.3.06a1.25,1.25,0,1,0,.19,2.49Zm194.11-39.78h-1.08a1,1,0,0,0-1,1v9.67a1,1,0,0,0,1,1h1.08a1,1,0,0,0,1-1v-9.67A1,1,0,0,0,317.75,351.05ZM396.87,417a13.89,13.89,0,0,1-1.95-1.12,1.25,1.25,0,0,0-1.43,2.05,17,17,0,0,0,2.3,1.34,1.31,1.31,0,0,0,.53.12,1.26,1.26,0,0,0,.55-2.39Zm7,1.28c-.36,0-.74.05-1.12.05s-.76,0-1.13-.05a1.25,1.25,0,0,0-.2,2.5c.44,0,.88.05,1.33.05s.89,0,1.33-.05a1.25,1.25,0,0,0-.21-2.5Zm-14.48-23a17,17,0,0,0-1.34,2.3,1.26,1.26,0,0,0,1.14,1.79,1.24,1.24,0,0,0,1.12-.71,13.39,13.39,0,0,1,1.13-1.95,1.25,1.25,0,1,0-2.05-1.43Zm.91,15.16a1.24,1.24,0,0,0-1.66-.59,1.25,1.25,0,0,0-.6,1.67,15.51,15.51,0,0,0,1.34,2.3,1.25,1.25,0,0,0,1,.54,1.25,1.25,0,0,0,1-2A14.37,14.37,0,0,1,390.3,410.43ZM389,405.68a10.68,10.68,0,0,1-.05-1.13,11.06,11.06,0,0,1,.05-1.15h0a1.25,1.25,0,0,0-2.5-.2c0,.44-.05.89-.05,1.35s0,.89.05,1.33a1.25,1.25,0,0,0,1.24,1.15h.1A1.26,1.26,0,0,0,389,405.68Zm5.19-12.24a1.26,1.26,0,0,0,.71-.22,13,13,0,0,1,1.95-1.12,1.26,1.26,0,0,0-1.08-2.27,17,17,0,0,0-2.3,1.33,1.26,1.26,0,0,0-.32,1.74A1.28,1.28,0,0,0,394.23,393.44Zm16.35,22.44a13.89,13.89,0,0,1-1.95,1.12,1.25,1.25,0,0,0,.54,2.38,1.23,1.23,0,0,0,.53-.11,18.73,18.73,0,0,0,2.31-1.33,1.26,1.26,0,0,0,.31-1.75A1.24,1.24,0,0,0,410.58,415.88ZM431.79,397a30,30,0,1,1-59.07,7.54c0-.43,0-.84.06-1.27a30,30,0,0,1,59-6.27Zm-11.52,7.54a17.52,17.52,0,1,0-17.52,17.52A17.52,17.52,0,0,0,420.27,404.55Zm-6.19-7.82a13.54,13.54,0,0,1,1.13,1.95,1.25,1.25,0,1,0,2.25-1.07,15.49,15.49,0,0,0-1.32-2.31,1.25,1.25,0,0,0-2.06,1.43Zm44.83-15.06H430.45a35.92,35.92,0,0,1,8.64,23.38c0,.29,0,.58,0,.87h11.84a10,10,0,0,0,10-10V383.67A2,2,0,0,0,458.91,381.67Zm-42.05,28.18a1.25,1.25,0,0,0-1.66.59,13.94,13.94,0,0,1-1.13,1.95,1.25,1.25,0,0,0,.32,1.74,1.22,1.22,0,0,0,1.73-.31,17,17,0,0,0,1.34-2.3A1.26,1.26,0,0,0,416.86,409.85Zm-278,0a1.25,1.25,0,0,0-1.66.59,13.94,13.94,0,0,1-1.13,1.95,1.25,1.25,0,0,0,.32,1.74,1.22,1.22,0,0,0,1.73-.31,17,17,0,0,0,1.34-2.3A1.26,1.26,0,0,0,138.86,409.85Zm273.9-5.3a10,10,0,1,1-10-10A10,10,0,0,1,412.76,404.55Zm-11.07-5.95a1.5,1.5,0,1,0,0-2.12A1.5,1.5,0,0,0,401.69,398.6Zm-4.55,4.85a1.5,1.5,0,1,0-2.12,0A1.5,1.5,0,0,0,397.14,403.45Zm2.55,5.72a1.5,1.5,0,0,0-2.13,2.12,1.52,1.52,0,0,0,2.13,0A1.49,1.49,0,0,0,399.69,409.17Zm3.06-.86a3.76,3.76,0,1,0-3.75-3.76A3.77,3.77,0,0,0,402.75,408.31Zm5.19.86a1.5,1.5,0,1,0,0,2.12A1.51,1.51,0,0,0,407.94,409.17Zm2.55-7.85a1.51,1.51,0,0,0-2.13,2.13,1.51,1.51,0,0,0,2.13-2.13Zm6,2.12c0,.36,0,.74,0,1.11s0,.76,0,1.14a1.26,1.26,0,0,0,1.15,1.35h.1a1.25,1.25,0,0,0,1.25-1.15c0-.44,0-.89,0-1.34s0-.88,0-1.31a1.26,1.26,0,0,0-1.35-1.16A1.28,1.28,0,0,0,416.47,403.44Zm-119.8-30.63H278a1,1,0,0,0-1,1v18.68a1,1,0,0,0,1,1h18.68a1,1,0,0,0,1-1V373.81A1,1,0,0,0,296.67,372.81ZM153.79,397a30,30,0,1,1-59.07,7.54c0-.43,0-.84.06-1.27a30,30,0,0,1,59-6.27Zm-11.52,7.54a17.52,17.52,0,1,0-17.52,17.52A17.52,17.52,0,0,0,142.27,404.55ZM212,328.05h1.08a1,1,0,0,0,1-1v-5.67a1,1,0,0,0-1-1H212a1,1,0,0,0-1,1v5.67A1,1,0,0,0,212,328.05Zm-75.92,68.68a13.54,13.54,0,0,1,1.13,1.95,1.25,1.25,0,1,0,2.25-1.07,15.49,15.49,0,0,0-1.32-2.31,1.25,1.25,0,0,0-2.06,1.43Zm265.56-5.9a10.29,10.29,0,0,1,1.11,0,11,11,0,0,1,1.15,0h0a1.25,1.25,0,0,0,.21-2.49c-.45,0-.9-.06-1.36-.06s-.87,0-1.3.06a1.25,1.25,0,1,0,.19,2.49Zm-194.1,5.46V253.37a2.5,2.5,0,0,1,2.5-2.5h39.83a2.51,2.51,0,0,1,2.5,2.5V396.29a2.51,2.51,0,0,1-2.5,2.5H210A2.5,2.5,0,0,1,207.54,396.29Zm10.85-90.13a2,2,0,0,0,2,2h19.12a2,2,0,0,0,2-2v-39a2,2,0,0,0-2-2H220.39a2,2,0,0,0-2,2ZM210,327.05a2,2,0,0,0,2,2h5.5a2,2,0,0,0,2-2v-5.67a2,2,0,0,0-2-2H212a2,2,0,0,0-2,2Zm-71.53,76.39c0,.36.05.74.05,1.11s0,.76-.05,1.14a1.26,1.26,0,0,0,1.15,1.35h.1a1.25,1.25,0,0,0,1.25-1.15c0-.44.05-.89.05-1.34s0-.88-.05-1.31a1.26,1.26,0,0,0-1.35-1.16A1.28,1.28,0,0,0,138.47,403.44ZM308,402.55H161.63a3.19,3.19,0,0,1-2-.71v8.46h28.58a1,1,0,0,0,1-1v-2.75h107.5v3.75a1,1,0,0,0,1,1h58a1,1,0,0,0,1-1v-6.19l-48.75,0Zm1-20.5v21.09l56,0a2.23,2.23,0,0,0,2.16-2,35.9,35.9,0,0,1,8.08-19.06ZM168.2,393.49h28.29a1,1,0,0,0,1-1V373.81a1,1,0,0,0-1-1H168.2a1,1,0,0,0-1,1v18.68A1,1,0,0,0,168.2,393.49Zm240.45-1.38a12.54,12.54,0,0,1,2,1.13,1.27,1.27,0,0,0,.72.22,1.25,1.25,0,0,0,.71-2.28,17,17,0,0,0-2.3-1.33,1.25,1.25,0,1,0-1.08,2.26ZM159.4,399.57a34.28,34.28,0,0,0-.77-3.81,35,35,0,0,0-68.52,3.8,2.32,2.32,0,0,1-2.23,2H7a2,2,0,0,1-2-2V213.8a2,2,0,0,1,2-2H363a10.64,10.64,0,0,1,7.83,4.12l35.1,51.14c6.25,9.11,2.37,16.49-8.68,16.49H308v118H161.63A2.33,2.33,0,0,1,159.4,399.57Zm139.27-25.76a2,2,0,0,0-2-2H278a2,2,0,0,0-2,2v18.68a2,2,0,0,0,2,2h18.68a2,2,0,0,0,2-2Zm-36.83-48a2,2,0,0,0,2,2h32.83a2,2,0,0,0,2-2V252.37a2,2,0,0,0-2-2H263.84a2,2,0,0,0-2,2Zm-55.3,70.5a3.5,3.5,0,0,0,3.5,3.5h39.83a3.5,3.5,0,0,0,3.5-3.5V253.37a3.5,3.5,0,0,0-3.5-3.5H210a3.5,3.5,0,0,0-3.5,3.5ZM166.23,291.92a2,2,0,0,0,2,2h28.25a2,2,0,0,0,2-2V267.15a2,2,0,0,0-2-2H168.23a2,2,0,0,0-2,2Zm0,100.57a2,2,0,0,0,2,2h28.29a2,2,0,0,0,2-2V373.81a2,2,0,0,0-2-2H168.2a2,2,0,0,0-2,2ZM71.52,373.81a2,2,0,0,0-2-2H23a2,2,0,0,0-2,2v23.68a2,2,0,0,0,2,2H69.52a2,2,0,0,0,2-2Zm3.93-121.44a2,2,0,0,0-2-2H19.11a2,2,0,0,0-2,2v50.84a2,2,0,0,0,2,2H73.45a2,2,0,0,0,2-2ZM69.52,372.81H23a1,1,0,0,0-1,1v23.68a1,1,0,0,0,1,1H69.52a1,1,0,0,0,1-1V373.81A1,1,0,0,0,69.52,372.81Z" fill="#ef3e4c"/><path d="M284.37,46.29c0-.07,0-.14,0-.21a46.08,46.08,0,1,0-92.16,0v.21H166.46l71.84,91.46,71.83-91.46Zm-78.6-.21a32.53,32.53,0,0,1,65,0c0,.07,0,.14,0,.21a32.52,32.52,0,0,1-65,0C205.78,46.22,205.77,46.15,205.77,46.08Z" fill="#5c90bf"/><path d="M276.85,65.51V65.3a46.08,46.08,0,1,0-92.16,0v.21H158.93L230.77,157l71.84-91.45Zm-78.6-.21a32.52,32.52,0,1,1,65,0v.21a32.52,32.52,0,0,1-65,0Z" fill="#ef3e4c"/><path d="M41.61,522.08H29.46L16.25,502.93H13v19.15H2.82V473.36H18a26.89,26.89,0,0,1,8.68,1.22,15.75,15.75,0,0,1,5.72,3.25,11.88,11.88,0,0,1,3.14,4.71,16.73,16.73,0,0,1,1,5.68,14.21,14.21,0,0,1-.78,4.82,13.94,13.94,0,0,1-2.11,3.86,13,13,0,0,1-3.14,2.86,14.17,14.17,0,0,1-3.89,1.75ZM26,488.65A6.93,6.93,0,0,0,24,483.43a7.78,7.78,0,0,0-5.58-1.85H13v13.85h5.5A7.62,7.62,0,0,0,24,493.58,6.46,6.46,0,0,0,26,488.65Z" fill="#5c90bf"/><path d="M69.54,522.08H60.32L42.61,473.36H53.54l8.64,26c.47,1.38,1,3.07,1.57,5.07s1,3.81,1.43,5.43h.21q.57-2.57,1.43-5.5c.57-1.95,1.1-3.64,1.57-5.07l8.72-25.93H87.68Z" fill="#5c90bf"/><path d="M115,486.08a6.91,6.91,0,0,0-1.79-4.36,6.36,6.36,0,0,0-8.28-.21,5.19,5.19,0,0,0,.71,8,23.85,23.85,0,0,0,6.14,2.75q7.5,2.5,10.65,6.61a15.74,15.74,0,0,1,2.14,15,14.52,14.52,0,0,1-3,4.9,15.2,15.2,0,0,1-5.14,3.53,18.29,18.29,0,0,1-7.39,1.36,20.57,20.57,0,0,1-6.68-1,14.48,14.48,0,0,1-5.25-3.07,15.31,15.31,0,0,1-3.57-5,19.18,19.18,0,0,1-1.65-6.72H102a9.84,9.84,0,0,0,2.08,5.47,6.32,6.32,0,0,0,5.14,2,6.11,6.11,0,0,0,4.71-1.85,6.74,6.74,0,0,0-.35-9.36,18.93,18.93,0,0,0-6.72-3.36q-7.29-2.43-10.28-6.39a14.47,14.47,0,0,1-3-9,12.8,12.8,0,0,1,1.21-5.6A13,13,0,0,1,98,475.51a14.51,14.51,0,0,1,4.93-2.75,18.61,18.61,0,0,1,6.07-1,18.25,18.25,0,0,1,6.32,1,14.56,14.56,0,0,1,4.86,2.89,13.06,13.06,0,0,1,3.17,4.5,16.38,16.38,0,0,1,1.29,5.86Z" fill="#ef3e4c"/><path d="M135.32,473.36h15.57a27.25,27.25,0,0,1,7.29.93,16.34,16.34,0,0,1,5.82,2.86,13.63,13.63,0,0,1,3.9,4.89,15.94,15.94,0,0,1,1.42,7q0,7.35-4.6,11.6t-14.18,4.25h-5v17.22H135.32ZM159,489.15a9,9,0,0,0-.47-2.89,6.28,6.28,0,0,0-1.46-2.43,7.13,7.13,0,0,0-2.61-1.65,10.9,10.9,0,0,0-3.82-.6h-5.14v15.07h4.93a11.91,11.91,0,0,0,4.21-.64,6.93,6.93,0,0,0,2.61-1.68,6,6,0,0,0,1.36-2.4A10,10,0,0,0,159,489.15Z" fill="#ef3e4c"/><path d="M174.54,497.72a26,26,0,0,1,7.32-18.14,26,26,0,0,1,8.21-5.68,25.31,25.31,0,0,1,10.4-2.11,26.23,26.23,0,0,1,10.78,2.14,24.5,24.5,0,0,1,8.11,5.75,25.1,25.1,0,0,1,5.07,8.29,27.54,27.54,0,0,1,1.75,9.75A26.13,26.13,0,0,1,218.82,516a24.83,24.83,0,0,1-8.14,5.57,25.6,25.6,0,0,1-10.28,2,26.32,26.32,0,0,1-11.58-2.36,24.16,24.16,0,0,1-8-6.1,25.32,25.32,0,0,1-4.72-8.36A28.78,28.78,0,0,1,174.54,497.72Zm10.43,0a18.26,18.26,0,0,0,1.18,6.64,16.19,16.19,0,0,0,3.25,5.32,15.28,15.28,0,0,0,4.85,3.54,14.28,14.28,0,0,0,6.07,1.29,14.52,14.52,0,0,0,6.11-1.29,15.12,15.12,0,0,0,4.89-3.54,16.19,16.19,0,0,0,3.25-5.32,18.26,18.26,0,0,0,1.18-6.64,19.44,19.44,0,0,0-1.1-6.57,16.23,16.23,0,0,0-3.11-5.32,14.59,14.59,0,0,0-11.14-4.9,14.52,14.52,0,0,0-6.11,1.29,15.12,15.12,0,0,0-4.89,3.54,16.19,16.19,0,0,0-3.25,5.32A18.26,18.26,0,0,0,185,497.72Z" fill="#ef3e4c"/><path d="M242.11,482.22H230.54v-8.86H264v8.86H252.4v39.86H242.11Z" fill="#ef3e4c"/><path d="M287.61,473.36a32.14,32.14,0,0,1,11.57,1.93,24.6,24.6,0,0,1,8.4,5.25,21.71,21.71,0,0,1,5.1,7.75,25.75,25.75,0,0,1,1.72,9.43,24.79,24.79,0,0,1-1.79,9.36,22.1,22.1,0,0,1-5.25,7.75,25.65,25.65,0,0,1-8.46,5.28,31.12,31.12,0,0,1-11.43,2H270.9V473.36Zm-.36,39.72a20.89,20.89,0,0,0,7.47-1.22,14.38,14.38,0,0,0,5.21-3.28,13.12,13.12,0,0,0,3-4.9,17.84,17.84,0,0,0,1-6,17.55,17.55,0,0,0-1.07-6.25,13.52,13.52,0,0,0-3.15-4.86,14,14,0,0,0-5.21-3.14,21.9,21.9,0,0,0-7.29-1.11h-6.14v30.72Z" fill="#5c90bf"/><path d="M361.83,522.08H349.68l-13.21-19.15h-3.22v19.15H323V473.36h15.14a26.93,26.93,0,0,1,8.68,1.22,15.75,15.75,0,0,1,5.72,3.25,11.88,11.88,0,0,1,3.14,4.71,16.73,16.73,0,0,1,1,5.68,14.21,14.21,0,0,1-.78,4.82,13.94,13.94,0,0,1-2.11,3.86,13,13,0,0,1-3.14,2.86,14.23,14.23,0,0,1-3.9,1.75Zm-15.65-33.43a6.9,6.9,0,0,0-1.93-5.22,7.74,7.74,0,0,0-5.57-1.85h-5.43v13.85h5.5a7.63,7.63,0,0,0,5.47-1.85A6.46,6.46,0,0,0,346.18,488.65Z" fill="#5c90bf"/><path d="M365.25,497.72a25.89,25.89,0,0,1,15.54-23.82,25.26,25.26,0,0,1,10.39-2.11A26.27,26.27,0,0,1,402,473.93a24.61,24.61,0,0,1,8.11,5.75,25.26,25.26,0,0,1,5.07,8.29,27.76,27.76,0,0,1,1.75,9.75A26.25,26.25,0,0,1,409.54,516a24.93,24.93,0,0,1-8.14,5.57,25.65,25.65,0,0,1-10.29,2,26.27,26.27,0,0,1-11.57-2.36,24.2,24.2,0,0,1-8-6.1,25.12,25.12,0,0,1-4.71-8.36A28.52,28.52,0,0,1,365.25,497.72Zm10.43,0a18.47,18.47,0,0,0,1.18,6.64,16.54,16.54,0,0,0,3.25,5.32,15.21,15.21,0,0,0,4.86,3.54,14.28,14.28,0,0,0,6.07,1.29,14.52,14.52,0,0,0,6.11-1.29,15.12,15.12,0,0,0,4.89-3.54,16.54,16.54,0,0,0,3.25-5.32,18.26,18.26,0,0,0,1.18-6.64,19.2,19.2,0,0,0-1.11-6.57,16.05,16.05,0,0,0-3.11-5.32,14.59,14.59,0,0,0-11.14-4.9,14.52,14.52,0,0,0-6.11,1.29,15.12,15.12,0,0,0-4.89,3.54,16.54,16.54,0,0,0-3.25,5.32A18.47,18.47,0,0,0,375.68,497.72Z" fill="#5c90bf"/><path d="M425.54,473.36h15.57a27.25,27.25,0,0,1,7.29.93,16.34,16.34,0,0,1,5.82,2.86,13.6,13.6,0,0,1,3.89,4.89,15.94,15.94,0,0,1,1.43,7q0,7.35-4.61,11.6t-14.18,4.25h-5v17.22H425.54Zm23.71,15.79a9,9,0,0,0-.46-2.89,6.4,6.4,0,0,0-1.46-2.43,7.13,7.13,0,0,0-2.61-1.65,10.94,10.94,0,0,0-3.82-.6h-5.15v15.07h4.93a11.93,11.93,0,0,0,4.22-.64,7,7,0,0,0,2.6-1.68,5.75,5.75,0,0,0,1.36-2.4A10,10,0,0,0,449.25,489.15Z" fill="#5c90bf"/></svg>