<?xml version="1.0" standalone="no"?><svg xmlns="http://www.w3.org/2000/svg" viewBox="0 0 655.4 107.71"><path d="M86.08,31.77v-.15a31.62,31.62,0,0,0-63.24,0v.15H5.17L54.46,94.52l49.29-62.75Zm-53.94-.15a22.32,22.32,0,1,1,44.63,0v.15a22.31,22.31,0,0,1-44.62,0C32.15,31.72,32.14,31.67,32.14,31.62Z" fill="#5c90bf"/><path d="M80.91,45V44.8a31.62,31.62,0,0,0-63.24,0c0,.05,0,.1,0,.15H0l49.29,62.76L98.59,45ZM27,44.8a22.32,22.32,0,0,1,44.63,0V45A22.32,22.32,0,0,1,27,45Z" fill="#ef3e4c"/><path d="M178.81,86.63H165L149.89,64.8h-3.66V86.63H134.58V31.08h17.27a30.45,30.45,0,0,1,9.89,1.39,17.87,17.87,0,0,1,6.52,3.7,13.64,13.64,0,0,1,3.59,5.38A19,19,0,0,1,172.94,48a16,16,0,0,1-.89,5.5,15.66,15.66,0,0,1-2.4,4.4,14.7,14.7,0,0,1-3.59,3.26,15.85,15.85,0,0,1-4.44,2ZM161,48.51a7.84,7.84,0,0,0-2.2-5.94q-2.19-2.12-6.35-2.12h-6.19v15.8h6.27a8.67,8.67,0,0,0,6.23-2.12A7.37,7.37,0,0,0,161,48.51Z" fill="#5c90bf"/><path d="M210.66,86.63H200.15L180,31.08h12.46l9.86,29.65c.54,1.58,1.14,3.5,1.79,5.79s1.19,4.34,1.63,6.19h.24q.66-2.94,1.63-6.28t1.79-5.78l9.94-29.57h12.06Z" fill="#5c90bf"/><path d="M262.54,45.58a7.84,7.84,0,0,0-2-5,7.26,7.26,0,0,0-9.45-.24,5.94,5.94,0,0,0,.81,9.16,27.75,27.75,0,0,0,7,3.14q8.55,2.85,12.14,7.53a18,18,0,0,1,2.44,17.07A16.45,16.45,0,0,1,270,82.85a17.49,17.49,0,0,1-5.87,4,21,21,0,0,1-8.43,1.55,23.59,23.59,0,0,1-7.61-1.18,16.67,16.67,0,0,1-6-3.51A17.69,17.69,0,0,1,238,78.08a21.94,21.94,0,0,1-1.88-7.66h11.49A11.28,11.28,0,0,0,250,76.66,7.26,7.26,0,0,0,255.87,79a7,7,0,0,0,5.37-2.12,7.67,7.67,0,0,0-.41-10.67,21.58,21.58,0,0,0-7.65-3.83q-8.31-2.76-11.73-7.29A16.5,16.5,0,0,1,238,44.85a14.67,14.67,0,0,1,1.38-6.4,15,15,0,0,1,3.75-4.93,16.69,16.69,0,0,1,5.62-3.13,21.58,21.58,0,0,1,6.92-1.1,20.77,20.77,0,0,1,7.21,1.18,16.66,16.66,0,0,1,5.54,3.3,14.61,14.61,0,0,1,3.62,5.13,18.83,18.83,0,0,1,1.47,6.68Z" fill="#ef3e4c"/><path d="M285.68,31.08h17.75a30.9,30.9,0,0,1,8.31,1.06,18.66,18.66,0,0,1,6.64,3.26A15.47,15.47,0,0,1,322.82,41a18,18,0,0,1,1.63,7.94q0,8.38-5.25,13.24T303,67h-5.7V86.63H285.68Zm27,18a10.46,10.46,0,0,0-.53-3.3A7.16,7.16,0,0,0,310.52,43a7.93,7.93,0,0,0-3-1.88,12.39,12.39,0,0,0-4.36-.69h-5.86V57.64H303a13.3,13.3,0,0,0,4.8-.74,8,8,0,0,0,3-1.91,6.74,6.74,0,0,0,1.54-2.73A11.31,11.31,0,0,0,312.72,49.08Z" fill="#ef3e4c"/><path d="M330.4,58.86a29.61,29.61,0,0,1,8.35-20.69,29.49,29.49,0,0,1,9.36-6.48A28.93,28.93,0,0,1,360,29.29a29.7,29.7,0,0,1,12.29,2.44,28,28,0,0,1,9.25,6.56,28.62,28.62,0,0,1,5.78,9.45,31.49,31.49,0,0,1,2,11.12,29.59,29.59,0,0,1-2.24,11.48,29.9,29.9,0,0,1-6.15,9.41,28.37,28.37,0,0,1-9.29,6.35,29.21,29.21,0,0,1-11.73,2.33,30,30,0,0,1-13.19-2.69,27.61,27.61,0,0,1-9.17-7,28.49,28.49,0,0,1-5.37-9.53A32.59,32.59,0,0,1,330.4,58.86Zm11.89,0a21.07,21.07,0,0,0,1.34,7.57,18.73,18.73,0,0,0,3.71,6.07,17.14,17.14,0,0,0,5.54,4A16.27,16.27,0,0,0,359.8,78a16.59,16.59,0,0,0,7-1.47,17.2,17.2,0,0,0,5.58-4,18.7,18.7,0,0,0,3.7-6.07,20.86,20.86,0,0,0,1.35-7.57,22,22,0,0,0-1.27-7.5,18.41,18.41,0,0,0-3.54-6.06,16.54,16.54,0,0,0-12.71-5.58,16.54,16.54,0,0,0-7,1.46,17.13,17.13,0,0,0-5.58,4,18.83,18.83,0,0,0-3.71,6.07A21.12,21.12,0,0,0,342.29,58.86Z" fill="#ef3e4c"/><path d="M407.45,41.18H394.26V31.08h38.2v10.1H419.18V86.63H407.45Z" fill="#ef3e4c"/><path d="M459.34,31.08a36.43,36.43,0,0,1,13.19,2.2,27.75,27.75,0,0,1,9.57,6,24.61,24.61,0,0,1,5.83,8.84,29.56,29.56,0,0,1,1.95,10.75,28.44,28.44,0,0,1-2,10.67,25.25,25.25,0,0,1-6,8.84,29.13,29.13,0,0,1-9.65,6,35.31,35.31,0,0,1-13,2.24h-18.9V31.08Zm-.41,45.29A23.84,23.84,0,0,0,467.44,75a16.56,16.56,0,0,0,5.95-3.75,15,15,0,0,0,3.46-5.58,21.15,21.15,0,0,0-.08-13.93,15.31,15.31,0,0,0-3.58-5.54,15.84,15.84,0,0,0-5.95-3.58,25,25,0,0,0-8.31-1.26h-7v35Z" fill="#5c90bf"/><path d="M544,86.63H530.12L515.05,64.8h-3.66V86.63H499.74V31.08H517a30.45,30.45,0,0,1,9.89,1.39,17.87,17.87,0,0,1,6.52,3.7A13.64,13.64,0,0,1,537,41.55,19,19,0,0,1,538.1,48a16,16,0,0,1-.89,5.5,15.66,15.66,0,0,1-2.4,4.4,14.7,14.7,0,0,1-3.59,3.26,15.85,15.85,0,0,1-4.44,2ZM526.13,48.51a7.84,7.84,0,0,0-2.2-5.94q-2.19-2.12-6.35-2.12h-6.19v15.8h6.27a8.67,8.67,0,0,0,6.23-2.12A7.37,7.37,0,0,0,526.13,48.51Z" fill="#5c90bf"/><path d="M547.88,58.86a29.35,29.35,0,0,1,29.57-29.57,29.78,29.78,0,0,1,12.3,2.44A27.94,27.94,0,0,1,599,38.29a28.64,28.64,0,0,1,5.79,9.45,31.49,31.49,0,0,1,2,11.12,29.88,29.88,0,0,1-8.39,20.89,28.43,28.43,0,0,1-9.28,6.35,29.28,29.28,0,0,1-11.73,2.33,30,30,0,0,1-13.2-2.69,27.57,27.57,0,0,1-9.16-7,28.52,28.52,0,0,1-5.38-9.53A32.59,32.59,0,0,1,547.88,58.86Zm11.89,0a20.86,20.86,0,0,0,1.35,7.57,18.7,18.7,0,0,0,3.7,6.07,17.25,17.25,0,0,0,5.54,4A16.3,16.3,0,0,0,577.28,78a16.59,16.59,0,0,0,7-1.47,17.2,17.2,0,0,0,5.58-4,18.7,18.7,0,0,0,3.7-6.07,20.86,20.86,0,0,0,1.35-7.57,22,22,0,0,0-1.26-7.5,18.6,18.6,0,0,0-3.55-6.06,16.54,16.54,0,0,0-12.7-5.58,16.59,16.59,0,0,0-7,1.46,17.34,17.34,0,0,0-5.58,4,18.81,18.81,0,0,0-3.7,6.07A20.91,20.91,0,0,0,559.77,58.86Z" fill="#5c90bf"/><path d="M616.63,31.08h17.75a30.9,30.9,0,0,1,8.31,1.06,18.75,18.75,0,0,1,6.64,3.26A15.58,15.58,0,0,1,653.77,41a18,18,0,0,1,1.63,7.94q0,8.38-5.26,13.24T634,67h-5.71V86.63H616.63Zm27,18a10.46,10.46,0,0,0-.53-3.3A7.16,7.16,0,0,0,641.47,43a7.93,7.93,0,0,0-3-1.88,12.43,12.43,0,0,0-4.36-.69h-5.87V57.64h5.62a13.32,13.32,0,0,0,4.81-.74,7.86,7.86,0,0,0,3-1.91,6.65,6.65,0,0,0,1.55-2.73A11.31,11.31,0,0,0,643.67,49.08Z" fill="#5c90bf"/></svg>